<svg xmlns="http://www.w3.org/2000/svg" viewBox="0 0 100 100">
  <rect width="100" height="100" fill="#1e00ff" rx="20"/>
  <path fill="#fff" d="M11.72 49.88q3.06 1.54 3.06 6.2v6q0 1.75.75 2.47.74.73 2.05.87.1.36.1.68v.62q0 1.5-.83 2.2-.83.71-2.27.71-2.45 0-4.01-1.63-1.54-1.62-1.54-4.92v-5.66q0-2.4-.88-3.67-.87-1.27-2.68-1.67-.14-.45-.25-1.06-.09-.6-.09-1.14 0-.61.09-1.21.11-.59.25-1.04 1.81-.41 2.68-1.68.88-1.28.88-3.68v-5.39q0-3.3 1.6-4.91 1.59-1.59 4.05-1.59 1.45 0 2.22.67.78.67.78 2.28v.59q0 .3-.1.66-1.31.14-2.05.87-.75.72-.75 2.47v5.75q0 4.71-3.06 6.21Zm20.11 8.95q2.9 0 4.25-1.13 1.34-1.12 1.34-2.82 0-1.55-1.04-2.48-1.05-.92-3.21-1.57l-3.19-1q-1.9-.6-3.46-1.35-1.54-.75-2.64-1.78-1.11-1.03-1.7-2.4-.61-1.38-.61-3.28 0-4.05 3.06-6.42 3.05-2.38 8.35-2.38 2.1 0 3.87.33 1.78.33 3.07.9 1.31.57 2.03 1.43.72.84.72 1.89 0 1-.47 1.73-.47.72-1.17 1.17-1.2-.84-3.18-1.47-1.97-.62-4.33-.62-2.59 0-3.94.92t-1.35 2.52q0 1.31.92 2 .93.7 2.93 1.36l2.84.89q4.36 1.31 6.75 3.56 2.41 2.25 2.41 6.09 0 2.06-.8 3.75-.8 1.71-2.33 2.93-1.53 1.23-3.8 1.9-2.27.67-5.17.67-2.3 0-4.23-.4-1.93-.39-3.32-1.07-1.41-.68-2.18-1.6-.77-.93-.77-2.02 0-1.16.67-1.98.67-.83 1.58-1.22 1.25 1.1 3.29 2.02 2.06.93 4.81.93Zm15.1 1.44q0-1.64 1.02-2.77 1.03-1.12 2.83-1.12 1.75 0 2.77 1.12 1.03 1.13 1.03 2.77 0 1.61-1.03 2.73-1.02 1.13-2.77 1.13-1.8 0-2.83-1.13-1.02-1.12-1.02-2.73Zm15.9 3.21q-1.6 0-2.53-.96-.92-.94-.92-2.54V33.02q.4-.1 1.27-.25.88-.14 1.73-.14 1.8 0 2.65.64.85.65.85 2.4v22.46h12.85q.25.39.5 1.07t.25 1.47q0 1.35-.63 2.08-.62.73-1.72.73h-14.3Zm25.45-13.6q-3.06-1.5-3.06-6.21v-5.75q0-1.75-.75-2.47-.75-.73-2.05-.87-.09-.36-.09-.66v-.59q0-1.61.77-2.28.78-.67 2.23-.67 2.45 0 4.05 1.59 1.59 1.61 1.59 4.91v5.39q0 2.4.88 3.68.87 1.27 2.68 1.68.14.45.25 1.04.1.6.1 1.21 0 .54-.1 1.14-.11.61-.25 1.06-1.81.4-2.68 1.67-.88 1.27-.88 3.67v5.66q0 3.3-1.55 4.92-1.54 1.63-4 1.63-1.45 0-2.27-.71-.82-.7-.82-2.2v-.62q0-.32.09-.68 1.3-.14 2.05-.87.75-.72.75-2.47v-6q0-4.66 3.06-6.2Z"/>
</svg>
